<svg width="35" height="26" viewBox="0 0 35 26" fill="none" xmlns="http://www.w3.org/2000/svg">
<path d="M2.99997 0H31.1333C32.7854 0 34.1333 1.3464 34.1333 3V23C34.1333 24.648 32.7914 26 31.1333 26H2.99997C1.35197 26 -3.43323e-05 24.6581 -3.43323e-05 23V3C-3.43323e-05 1.352 1.34183 0 2.99997 0ZM3.41423 2L17.003 15.5889L30.7094 2H3.41423ZM32.1333 22.5859V3.4046L22.5014 12.9539L32.1333 22.5859ZM30.7191 24L21.0811 14.362L17.704 17.7101C17.313 18.0977 16.6822 18.0965 16.2928 17.7071L13 14.4142L3.41417 24H30.7191ZM1.99997 22.5858L11.5858 13L1.99997 3.41413V22.5858Z" fill="white"/>
</svg>
