<svg width="209" height="190" viewBox="0 0 209 190" fill="none" xmlns="http://www.w3.org/2000/svg">
<path d="M86.1845 101.846C86.1845 101.846 81.8123 148.015 85.413 150.078C89.0136 152.141 92.4856 154.205 95.9576 152.657C99.4296 151.11 95.5718 108.036 101.487 106.489C107.274 105.07 109.717 107.521 109.717 107.521C109.717 107.521 108.817 151.626 111.26 151.11C113.832 150.594 121.291 153.431 120.905 149.175C120.519 144.791 126.306 100.685 120.905 95.7849C115.632 91.2712 86.1845 101.846 86.1845 101.846Z" fill="#BE6028"/>
<path d="M58.7941 143.372L99.4296 153.818L208.477 132.797C208.477 132.797 201.147 189.283 98.4009 189.283C-4.34528 189.283 0.0268953 132.797 0.0268953 132.797L58.7941 143.372Z" fill="#F9E27B"/>
<path d="M65.8667 118.74C65.8667 118.74 68.1814 134.732 68.1814 142.211C68.1814 149.691 66.6383 159.75 68.1814 159.492C69.7245 159.234 76.7971 161.04 78.8546 158.203C80.7835 155.237 78.3403 135.892 76.9257 130.863C75.3826 125.962 78.4689 121.191 82.7124 119.643C86.8274 118.095 89.7851 120.417 89.7851 126.736C89.7851 133.055 90.2995 137.182 89.7851 141.696C89.2707 146.467 88.242 154.076 90.0423 155.881C91.8426 157.687 100.458 158.203 100.073 155.881C99.6868 153.56 99.0438 110.616 93.7715 107.263C88.242 103.91 65.8667 118.74 65.8667 118.74Z" fill="#F1B61C"/>
<path d="M163.083 115C163.083 115 163.083 115.903 163.083 117.967C163.083 120.03 163.341 122.351 165.012 122.351C166.813 122.351 165.012 119.643 165.012 119.643C165.012 119.643 167.327 121.062 167.584 123.383C167.841 125.704 172.985 126.865 172.471 123.383C171.956 119.901 171.313 113.969 167.713 113.582C164.241 113.195 163.083 115 163.083 115Z" fill="#D66E27"/>
<path d="M60.2085 62.2549C60.2085 62.2549 51.2069 68.4451 50.9498 70.8954C50.6926 73.3456 61.1086 76.8276 62.3946 75.0222C63.8091 73.2167 67.5383 64.8341 66.5096 63.5445C65.6094 62.2549 60.2085 62.2549 60.2085 62.2549Z" fill="#F1B61C"/>
<path d="M125.534 157.042C125.534 157.042 122.834 160.782 118.076 161.04C113.318 161.298 112.546 162.845 112.032 164.006C111.517 165.167 108.945 171.357 122.062 168.778C135.179 166.198 133.507 163.232 133.507 163.232C133.507 163.232 132.221 156.01 131.192 156.01C129.906 156.01 125.534 157.042 125.534 157.042Z" fill="#6B3E1E"/>
<path d="M142.766 163.361C138.265 166.456 137.879 171.615 140.965 171.873C144.051 172.131 151.381 174.839 152.924 170.325C154.468 165.811 154.082 160.266 154.082 160.266L152.281 155.108L146.623 156.139C146.623 156.139 147.395 158.847 146.109 160.137C144.823 161.685 142.766 163.361 142.766 163.361Z" fill="#6B3E1E"/>
<path d="M98.1438 48.069C98.1438 48.069 102.002 46.7794 104.316 46.7794C106.631 46.7794 109.717 48.069 109.717 48.069C109.717 48.069 110.103 49.6166 113.061 49.6166C116.018 49.6166 117.819 47.4242 124.763 50.9062C131.578 54.2592 159.869 68.9609 159.869 68.9609C159.869 68.9609 154.982 70.8954 145.723 70.3795C136.465 69.7347 119.619 60.7073 119.619 60.7073C119.619 60.7073 123.605 88.4342 123.605 95.0113C123.605 101.459 114.604 103.265 114.604 103.265L103.03 101.073L93.2572 104.039L84.2557 95.7851C84.2557 95.7851 82.8412 81.7282 86.1846 73.0877C89.528 64.4473 90.5567 58.1281 90.5567 58.1281C90.5567 58.1281 80.5265 69.8637 75.7685 69.8637C71.0106 69.8637 66.767 59.8046 66.767 59.8046C66.767 59.8046 90.171 48.069 93 48.069C96.0863 48.069 97.2436 49.2297 98.1438 48.069Z" fill="#F1B61C"/>
<path d="M63.9378 64.963C63.9378 64.963 45.8062 67.1554 50.8213 93.5926C55.965 120.03 56.8652 115.903 56.8652 115.903C56.8652 115.903 63.552 114.356 63.9378 111.518C64.3236 108.681 55.4507 89.2079 59.1799 84.6942C62.9091 80.3095 60.3372 115.645 62.6519 117.966C64.9666 120.288 94.6717 115.774 96.0862 110.358C97.6293 105.07 77.5687 62.6417 73.068 62.8996C68.4386 63.0286 65.0952 64.7051 63.9378 64.963Z" fill="#D66E27"/>
<path d="M87.2131 31.6908C87.2131 31.6908 88.1133 37.3652 90.2994 39.8155C92.6141 42.1368 95.1859 44.3291 95.1859 44.3291C95.1859 44.3291 94.4144 42.0078 95.9575 42.1368C97.5006 42.2657 95.3145 42.7816 97.372 44.0712C99.3009 45.2319 105.602 47.0373 110.746 44.4581C115.889 41.8789 120.519 39.6865 120.776 37.1072C121.033 34.528 127.206 25.1137 122.576 21.3738C119.49 18.7946 97.1148 14.9257 87.5989 18.7946C83.0981 20.4711 87.2131 31.6908 87.2131 31.6908Z" fill="#9A4C24"/>
<path d="M41.5625 62.2549C41.5625 62.2549 49.0209 69.9926 63.0376 63.2866C65.6095 61.9969 70.3674 62.2549 70.3674 62.2549C70.3674 62.2549 78.9832 60.0625 83.2268 56.3226C86.6988 53.2275 86.1844 48.9717 86.1844 42.6526L66.7668 53.6144L41.5625 62.2549Z" fill="#9A4C24"/>
<path d="M46.8349 73.0876C45.8061 76.0538 42.0769 78.8909 46.8349 80.9543C51.5928 82.8887 51.5928 80.1806 51.5928 78.633C51.5928 77.0855 54.9363 79.9226 55.322 76.4406C55.5792 73.0876 53.0074 67.4133 50.0497 70.3794C46.8349 73.2166 46.8349 73.0876 46.8349 73.0876Z" fill="#FBDA37"/>
<path d="M63.4236 62.2548C63.4236 62.2548 61.8805 67.9292 63.4236 68.4451C64.9667 69.0899 68.3102 69.7347 70.4963 68.4451C72.6823 67.1554 67.1528 64.7051 68.9531 60.9652C70.6249 57.3543 63.4236 62.2548 63.4236 62.2548Z" fill="#E7D170"/>
<path d="M107.66 59.5468H102.387V64.5763H97.2435V69.8637H102.387V75.0222H107.66V69.8637H112.675V64.5763H107.66V59.5468Z" fill="#D66E27"/>
<path d="M133.635 51.0352C133.635 51.0352 132.735 53.3565 133.378 55.033C136.465 60.3205 141.222 63.5445 147.909 63.5445C156.911 56.9674 156.911 52.0669 157.682 45.1029C158.325 40.2024 153.825 31.8198 150.738 26.7903C149.838 26.6613 148.81 26.5323 148.038 26.5323C145.337 26.5323 142.637 27.1772 140.322 28.3378C137.622 32.0777 134.793 36.4625 134.021 39.2996C132.478 45.3609 132.735 47.9401 132.735 47.9401" fill="#D66E27"/>
<path d="M150.224 26.7902C153.182 31.6907 157.811 40.2022 157.168 45.1028C156.268 52.0668 156.268 57.0963 147.395 63.5444H147.524C157.683 63.5444 165.912 55.2908 165.912 45.1028C165.912 35.6886 158.968 27.9508 150.224 26.7902Z" fill="#BE6028"/>
<path d="M107.274 46.5214C106.374 46.7793 105.345 46.9083 103.545 46.7793C102.001 46.7793 100.844 46.5214 100.073 46.1345C99.8154 47.4241 99.6868 48.7138 100.201 49.1007C101.744 50.2613 105.988 52.4537 107.274 49.1007C107.66 48.4558 107.66 47.5531 107.274 46.5214Z" fill="#FBDA37"/>
<path d="M107.274 46.5216C106.759 43.5554 104.573 40.4603 104.573 40.4603H102.259C102.259 40.4603 100.715 43.5554 100.33 46.1347C101.23 46.5216 102.259 46.6505 103.802 46.7795C105.345 46.9084 106.502 46.7795 107.274 46.5216Z" fill="#DBB82A"/>
<path d="M132.221 28.5957C132.221 28.5957 127.849 31.5618 134.15 31.9487C140.322 32.2066 144.309 29.6274 145.595 28.5957C146.881 27.564 148.295 33.4962 151.638 33.4962C154.982 33.4962 157.039 36.4624 157.94 33.4962C158.84 30.5301 157.168 39.1706 160.511 40.5892C163.855 42.0078 159.354 48.069 160.511 49.2296C161.669 50.3903 158.197 54.775 160.511 54.775C162.826 54.775 168.741 50.3903 169.384 45.4897C170.156 40.7181 167.455 37.881 167.455 37.881C167.455 37.881 171.185 33.4962 169.384 30.2722C167.841 27.1771 162.569 25.3716 162.569 25.3716C162.569 25.3716 162.955 20.9869 156.268 21.2448C149.71 21.5027 144.437 22.7924 144.437 22.7924C144.437 22.7924 142.508 19.8262 137.493 21.2448C132.607 22.6634 135.307 24.9847 135.307 24.9847L132.221 28.5957Z" fill="#9A4C24"/>
<path d="M94.8001 18.5366C97.3719 22.9213 99.1723 22.9213 99.1723 22.9213C99.1723 22.9213 99.0437 13.894 103.673 12.4754C106.631 11.7016 109.46 9.89614 111.131 8.60652C109.203 7.83274 106.759 7.31689 104.573 7.31689C102.001 7.31689 99.8152 7.83274 97.5005 8.73548C95.5716 11.9595 93.3856 16.0863 94.8001 18.5366Z" fill="#DBB82A"/>
<path d="M111.132 8.34863C109.588 9.63826 106.631 9.25137 103.673 10.1541C98.9152 11.4437 99.1723 22.6634 99.1723 22.6634C99.1723 22.6634 97.2434 22.7924 94.8002 18.2787C93.3856 15.9574 95.5717 11.7016 97.7578 8.47759C93.2571 10.412 89.5278 14.023 87.7275 18.5367C87.8561 26.1454 89.1421 34.1411 90.0422 36.8493C93.3856 41.234 98.658 44.2001 104.573 44.2001C108.56 44.2001 109.846 43.5553 114.346 41.234C116.661 38.9127 118.076 36.8493 119.49 32.9804C120.519 30.0143 120.905 21.8897 121.033 17.247C119.104 13.3782 115.504 10.0251 111.132 8.34863Z" fill="#FBDA37"/>
<path d="M86.5702 20.4711C89.1421 24.8558 90.9424 24.8558 90.9424 24.8558C90.9424 24.8558 90.8138 15.8284 95.4432 14.4098C98.4008 13.6361 101.23 11.8306 102.902 10.541C100.973 9.76719 98.5294 9.25134 96.3433 9.25134C93.7715 9.25134 91.5854 9.76719 89.2707 10.6699C87.3418 13.894 85.2843 18.1497 86.5702 20.4711Z" fill="#DBB82A"/>
<path d="M86.8276 30.6591C86.8276 30.6591 82.0696 25.1137 83.4842 19.4394C84.7701 13.894 80.9123 7.70382 88.7565 4.99562C96.6007 2.41637 89.7853 -1.83938 104.702 0.86883C119.619 3.44807 116.147 11.0568 116.147 11.0568C116.147 11.0568 124.763 7.57486 124.763 15.1836C124.891 22.9214 127.077 25.2427 123.22 28.0799C119.362 31.046 123.734 23.9531 119.362 18.7946C114.99 13.6361 113.446 15.3126 113.446 15.3126C113.446 15.3126 111.518 6.4142 104.831 8.21967C98.2724 10.0251 97.3723 19.9552 97.3723 19.9552C97.3723 19.9552 93.9002 19.3104 93.6431 15.4416C93.5145 11.5727 88.2421 19.8263 90.2996 23.3083C92.4857 27.0482 86.5704 26.2744 86.4418 24.5979C86.1846 22.7924 86.8276 30.6591 86.8276 30.6591Z" fill="#D66E27"/>
<path d="M97.2435 6.28528C97.2435 6.28528 93.7714 11.4438 94.6716 14.5389C95.7004 17.505 95.829 18.4077 95.829 18.4077C95.829 18.4077 94.2858 14.5389 95.829 11.3148C97.5007 8.34867 97.2435 6.28528 97.2435 6.28528Z" fill="#F78D36"/>
<path d="M91.4566 4.8667C91.4566 4.8667 87.0845 6.80113 86.0557 8.60661C85.027 10.541 85.2842 15.1837 85.2842 15.1837C85.2842 15.1837 85.7986 10.799 87.4703 9.25142C89.0134 7.83283 91.4566 4.8667 91.4566 4.8667Z" fill="#F78D36"/>
<path d="M55.0649 49.6167C51.5929 43.5554 52.7502 34.3991 54.1648 27.5641C48.3781 30.6592 44.5203 36.8494 44.5203 43.9423C44.5203 54.1303 52.7502 62.3839 62.9091 62.3839C63.8093 62.3839 64.838 62.255 65.6096 62.126C62.7805 59.6757 58.5369 55.6779 55.0649 49.6167Z" fill="#E7D170"/>
<path d="M76.7974 31.6908C73.454 27.9509 68.5674 25.3717 62.9093 25.3717C59.8231 25.3717 56.7368 26.1455 54.0364 27.693C52.4933 34.528 51.4645 43.6843 54.9365 49.7456C58.4086 55.6778 62.6521 59.8046 65.4812 62.2549C69.982 61.6101 74.097 59.2888 76.926 55.8068C79.8837 48.9718 78.4691 38.7838 76.7974 31.6908Z" fill="#F8E289"/>
<path d="M124.891 114.614C124.891 114.614 118.59 150.465 124.634 156.01C130.549 161.556 132.478 156.01 132.478 156.01C132.478 156.01 129.906 122.351 137.236 122.093C144.566 121.835 145.466 122.48 145.466 122.48C145.466 122.48 140.708 156.526 145.98 158.461C151.253 160.395 154.468 158.332 154.468 158.332C154.468 158.332 159.997 120.03 156.011 115.774C152.281 111.647 124.891 114.614 124.891 114.614Z" fill="#BE6028"/>
<path d="M55.0648 24.3399C55.0648 24.3399 50.6926 19.8263 46.0632 25.2427C41.3053 30.6591 44.9059 58.7729 34.747 56.0647C24.5881 53.3565 41.3053 67.8002 48.6351 64.3182C55.9649 60.8363 55.1934 60.5783 55.1934 60.5783C55.1934 60.5783 48.1207 56.4515 47.6064 54.0013C47.6064 54.0013 55.4505 50.0034 56.8651 38.7837C56.8651 34.9148 56.6079 28.7247 55.0648 24.211C55.0648 24.3399 55.0648 24.3399 55.0648 24.3399Z" fill="#F78D36"/>
<path d="M86.1844 42.7814C86.1844 42.7814 82.4552 44.329 81.4264 36.7202C80.2691 28.8535 75.7683 15.1835 64.9665 19.1813C57.1223 21.8895 55.5791 23.5661 55.1934 24.3398C56.7365 29.1114 56.9937 35.0437 56.9937 38.9126C56.9937 38.6546 57.1223 38.2677 57.1223 38.0098C58.2796 26.1453 62.909 30.1431 63.9377 30.659C64.9665 31.4327 62.7804 25.1136 70.2388 26.9191C77.6972 28.7245 74.7396 47.0372 80.6549 48.0689C86.4416 48.8426 86.1844 42.7814 86.1844 42.7814Z" fill="#D66E27"/>
<path d="M144.437 67.2845C144.437 67.2845 131.706 70.7664 127.72 80.3096C123.605 89.7239 116.275 108.294 117.304 110.1C118.333 111.647 122.448 118.74 124.762 116.419C127.077 114.227 132.864 81.7282 135.179 81.7282C137.493 81.7282 119.49 113.582 122.962 115.258C126.434 116.806 128.234 121.578 144.823 119.385C161.283 117.193 159.74 114.227 159.74 114.227C159.74 114.227 153.182 83.5337 156.396 83.0179C159.483 82.502 159.74 118.096 162.955 118.096C166.041 118.096 170.413 114.743 170.413 114.743C170.413 114.743 166.684 74.5064 161.412 70.8954C155.496 67.1555 144.437 67.2845 144.437 67.2845Z" fill="#6B3E1E"/>
<path d="M143.023 69.7347C141.737 68.445 142.637 69.6057 141.737 68.445C144.309 66.8975 144.051 59.4177 144.309 58.257C144.437 56.8384 149.838 61.2232 149.838 61.2232C150.095 60.0625 149.967 68.3161 149.581 67.8002C147.909 69.8636 145.466 72.056 143.023 69.7347Z" fill="#D66E27"/>
<path d="M164.112 68.961C164.112 68.961 157.554 65.2211 156.782 68.961C156.011 72.7009 148.552 79.9228 156.782 77.2146C165.012 74.6353 160.897 72.443 160.897 72.443C160.897 72.443 156.525 80.5676 160.897 80.0518C165.269 79.5359 166.684 80.5676 166.427 77.0856C166.298 73.6036 168.484 76.6988 164.112 68.961Z" fill="#FBDA37"/>
<path d="M69.3389 156.01C69.3389 156.01 66.3813 163.361 69.3389 165.296C72.2966 167.23 70.1105 173.42 80.2694 170.454C90.4283 167.488 77.6975 157.3 77.6975 157.3L69.3389 156.01Z" fill="#BE6028"/>
<path d="M89.7851 156.01C89.7851 156.01 87.4704 159.492 89.7851 161.169C92.0998 162.716 99.0438 164.522 102.902 161.169C106.759 157.816 97.2435 155.366 97.2435 155.366L89.7851 156.01Z" fill="#BE6028"/>
<path d="M58.9227 115.129C58.9227 115.129 55.5793 116.548 58.9227 119.901C62.2662 123.254 63.8093 125.833 63.8093 125.833C63.8093 125.833 66.124 122.867 65.6096 118.74C64.9666 114.742 63.8093 111.518 63.8093 111.518L58.9227 115.129Z" fill="#F8E289"/>
<path d="M9.92871 129.057L23.1738 124.157L50.6928 129.057L39.1194 136.537L9.92871 129.057Z" fill="#F78D36"/>
<path d="M39.1194 136.537L9.92871 129.057L15.9726 146.209L40.5339 150.078L39.5052 136.279L39.1194 136.537Z" fill="#D66E27"/>
<path d="M39.505 136.279L40.5338 150.078H40.9195L50.6926 144.404V129.057L39.505 136.279Z" fill="#BE6028"/>
<path d="M203.205 119.772H188.159L172.728 132.797V133.7L188.159 133.958L203.205 119.772Z" fill="#F78D36"/>
<path d="M188.159 133.958L172.728 133.7V146.209L189.059 148.144L188.159 133.958Z" fill="#D66E27"/>
<path d="M203.59 119.772H203.204L188.159 133.958L189.059 148.144L203.59 133.7V119.772Z" fill="#BE6028"/>
</svg>
