<svg width="244" height="188" viewBox="0 0 244 188" fill="none" xmlns="http://www.w3.org/2000/svg">
<path d="M15.1817 134.241C15.1817 134.241 9.4784 100.772 11.5796 93.1179C13.6808 85.3135 34.3928 60.85 34.3928 60.85C34.3928 60.85 56.9057 83.5125 57.5061 87.4147C57.9563 91.3169 65.3106 138.443 60.0576 137.693C54.8045 136.942 39.3456 138.143 39.3456 138.143L15.1817 134.241Z" fill="#67863A"/>
<path d="M165.418 98.0707C165.418 98.0707 176.375 104.374 195.286 106.475C214.046 108.576 227.554 108.126 227.554 108.126C227.554 108.126 232.057 108.126 227.554 99.4214C223.052 90.7166 181.327 81.1113 175.624 84.5632C170.221 88.1652 165.418 98.0707 165.418 98.0707Z" fill="#4D5E2B"/>
<path d="M6.92701 101.973L33.1921 62.651L63.3595 94.6187L64.7103 91.0167L33.1921 54.2463L6.02649 97.7705L6.92701 101.973Z" fill="#4D5E2B"/>
<path d="M26.2881 132.59C26.2881 132.59 19.6843 96.4198 37.3945 93.268C54.9546 90.1163 52.2531 132.89 52.2531 132.89L26.2881 132.59Z" fill="#4D5E2B"/>
<path d="M165.418 137.392L171.572 92.3675C171.572 92.3675 181.327 85.4636 200.088 87.5648C218.849 89.5159 225.003 101.523 225.003 101.523L218.099 140.244H178.776L165.418 137.392Z" fill="#77A340"/>
<path d="M178.926 140.394C178.926 140.394 176.225 93.8683 195.135 100.172C213.896 106.475 199.488 142.045 199.488 142.045L178.926 140.394Z" fill="#67863A"/>
<path d="M136.902 142.195L116.19 146.097L68.6125 134.241L57.9563 132.29C53.1536 133.64 48.2007 135.291 43.6981 137.993C33.1921 144.146 24.0368 151.951 16.8326 159.305C31.9914 174.163 60.6579 187.67 114.989 187.67C123.994 187.67 132.399 187.22 140.054 186.62C129.247 173.713 120.542 156.153 136.902 142.195Z" fill="#D1E49E"/>
<path d="M43.6982 137.993C48.2008 135.291 53.1536 133.49 57.9564 132.29L0.0229812 121.784C0.0229812 121.784 -1.3278 141.445 16.6826 159.155C24.0368 151.8 33.1921 143.846 43.6982 137.993Z" fill="#B3D56E"/>
<path d="M243.313 121.784L136.752 142.195C120.242 156.303 129.248 173.713 139.904 186.62C236.109 177.915 243.313 121.784 243.313 121.784Z" fill="#B3D56E"/>
<path d="M80.3193 131.989C80.3193 131.989 75.2164 120.733 67.1117 126.737C58.857 132.89 66.3613 138.443 71.014 140.394C75.6667 142.495 88.424 141.295 88.424 141.295L87.5235 135.141L80.3193 131.989Z" fill="#4D5E2B"/>
<path d="M104.933 96.2697L79.7189 130.639C79.7189 130.639 86.6228 138.593 89.0242 136.192C91.2755 133.941 109.436 100.322 109.436 100.322H116.79C116.79 100.322 116.34 121.784 126.246 124.485C136.001 127.187 150.109 114.58 150.109 114.58L146.357 106.776C146.357 106.776 136.452 116.381 130.598 116.231C125.045 116.081 124.445 101.523 127.747 94.919C131.199 88.6155 104.933 96.2697 104.933 96.2697Z" fill="#8EC547"/>
<path d="M103.433 56.6477C103.433 56.6477 100.431 83.6627 94.5774 85.7638C91.5757 86.8144 89.1743 85.7638 89.1743 85.7638L92.026 92.3675C92.026 92.3675 109.436 94.3186 111.237 76.7588C113.038 59.3492 108.085 56.7978 108.085 56.7978L103.433 56.6477Z" fill="#77A340"/>
<path d="M107.785 47.6427C107.785 47.6427 107.335 54.2463 109.736 54.2463C111.988 54.2463 115.439 54.3964 114.089 51.2447C112.738 48.243 109.736 46.1418 109.736 46.1418L107.785 47.6427Z" fill="#77A340"/>
<path d="M91.8759 3.96851C91.8759 3.96851 90.5252 6.21975 88.8742 9.52158C89.6246 9.07133 90.5252 8.62108 91.4257 8.32092L91.8759 3.96851Z" fill="#4D5E2B"/>
<path d="M89.9247 14.3243C84.5216 18.8268 84.8218 26.0308 84.8218 26.6311C84.8218 27.2314 95.0277 22.7289 95.9282 19.5772C96.8287 16.5755 98.7798 14.7745 104.183 14.1742C109.736 13.7239 102.832 16.2754 103.282 19.5772C103.733 22.5789 106.284 23.9296 106.284 23.9296C106.284 23.9296 105.834 17.7762 108.836 17.7762C111.687 17.7762 112.738 27.5316 110.186 28.7323C107.635 29.9329 117.541 26.0308 117.541 21.5283C117.541 16.8757 117.991 12.3732 115.59 12.3732C113.188 12.3732 103.282 8.02078 98.6298 8.47103C93.9771 8.62111 89.9247 14.3243 89.9247 14.3243Z" fill="#4D5E2B"/>
<path d="M103.433 56.6478C103.433 56.6478 110.787 50.1942 120.092 50.1942C129.247 50.1942 133.3 65.3526 133.3 74.0574C133.3 82.7623 126.396 99.8717 126.396 99.8717C126.396 99.8717 114.989 95.3692 105.084 96.4198C95.3279 97.6205 105.084 72.1064 105.084 72.1064C105.084 72.1064 109.886 57.098 103.433 56.6478Z" fill="#67863A"/>
<path d="M119.792 50.1941C119.792 50.1941 127.897 60.3998 127.747 69.4048C127.597 78.4098 110.637 85.1635 105.834 85.6138C101.031 86.064 98.0295 84.5632 98.0295 84.5632V76.6088C98.0295 76.6088 117.241 79.6104 119.642 71.2058C122.193 62.9512 115.289 54.0963 115.289 54.0963C115.289 54.0963 113.939 51.9951 116.19 50.3442C118.591 49.1435 119.792 50.1941 119.792 50.1941Z" fill="#77A340"/>
<path d="M94.4275 83.6626C97.826 83.6626 100.581 80.9076 100.581 77.5092C100.581 74.1108 97.826 71.3558 94.4275 71.3558C91.029 71.3558 88.2739 74.1108 88.2739 77.5092C88.2739 80.9076 91.029 83.6626 94.4275 83.6626Z" fill="#B3D56E"/>
<path d="M149.959 114.73C149.959 114.73 156.863 123.585 160.766 121.634C167.97 118.482 160.766 112.178 160.766 112.178L152.511 101.973L146.357 106.775L149.959 114.73Z" fill="#4D5E2B"/>
<path d="M114.389 35.7861C113.939 25.2803 107.785 13.2736 107.785 13.2736L105.234 6.36981C103.883 5.91956 102.232 5.91956 100.731 5.91956C97.2791 5.91956 93.8271 6.66997 90.9755 8.02072C90.075 8.47097 89.3245 8.92123 88.424 9.2214C85.4223 15.2247 81.2199 24.0796 82.1204 28.432C83.4712 33.9851 85.7225 37.437 85.1221 44.9412C89.0244 48.8434 94.5775 51.0946 100.731 51.0946C102.982 51.0946 105.234 50.6444 107.335 50.0441C110.487 47.6427 114.839 42.69 114.389 35.7861Z" fill="#B3D56E"/>
<path d="M123.394 28.7322C123.394 17.7761 115.59 8.77115 105.084 6.5199L107.635 13.4237C107.635 13.4237 113.789 25.2803 114.239 35.9362C114.689 42.84 110.487 47.6427 107.335 50.3442C116.49 47.4926 123.394 38.7878 123.394 28.7322Z" fill="#8EC547"/>
<path d="M91.7259 6.8201C91.7259 6.8201 86.0226 7.72059 83.9214 11.1725C81.9703 14.3243 83.4711 16.5755 79.1186 17.7762C74.616 18.9768 85.1221 21.5282 92.6264 15.675C100.431 9.97184 103.583 13.4238 105.384 13.5738C107.335 13.7239 108.385 12.6733 113.789 16.5755C119.342 20.3276 109.436 18.8268 114.239 23.4793C119.042 27.9818 116.34 30.9835 116.34 30.9835C116.34 30.9835 120.693 33.0847 117.691 36.6866C114.839 40.2886 119.042 39.8384 119.042 39.8384C119.042 39.8384 125.645 38.4876 125.645 29.9329C125.645 21.3782 119.492 15.5249 119.492 15.5249C119.492 15.5249 122.193 9.37152 115.139 6.8201C108.235 4.1186 106.735 4.71893 104.183 1.11694C101.482 -2.63514 103.733 4.26868 103.733 4.26868C103.733 4.26868 100.731 3.51827 97.7293 1.71727C94.8777 -0.0837279 98.1796 4.56885 98.1796 4.56885C98.1796 4.56885 94.5775 3.51827 91.7259 6.8201Z" fill="#4D5E2B"/>
<path d="M89.4746 83.2124L81.6701 62.5009C81.2198 61.6004 80.3193 60.85 79.5688 60.85L72.0645 85.9139C72.5148 86.3641 73.4153 86.9645 74.3158 86.8144L88.424 85.0134C88.8742 85.0134 89.1744 84.8633 89.4746 84.5631C89.7747 84.263 89.7747 83.5125 89.4746 83.2124Z" fill="#67863A"/>
<path d="M78.9685 60.85L66.2111 62.8011C65.7609 62.8011 65.4607 62.9511 65.1605 63.2513C65.0105 63.7015 65.0105 64.1518 65.1605 64.6021L71.6143 85.1635C71.7643 85.6137 72.0645 85.6137 72.0645 86.064L79.5688 61C79.4187 60.85 79.1186 60.85 78.9685 60.85Z" fill="#77A340"/>
<path d="M74.616 88.015C74.616 88.015 76.5671 92.5176 81.0697 92.5176C85.5723 92.6676 91.7259 92.5176 91.7259 92.5176L88.8742 85.9139C88.8742 85.9139 81.9702 88.7655 82.8708 85.9139C83.7713 83.0623 84.2215 82.7621 82.4205 82.7621C80.6195 82.7621 80.6195 84.8633 80.6195 84.8633C80.6195 84.8633 81.0697 82.7621 79.869 82.7621C78.5183 82.612 77.9179 84.7132 77.9179 84.7132C77.9179 84.7132 79.2687 82.6121 77.4676 82.1618C75.5165 81.7116 75.3664 84.263 75.3664 84.263C75.3664 84.263 74.3158 82.9122 74.616 88.015Z" fill="#B3D56E"/>
<path d="M80.1692 59.2L67.4119 61.151C66.3613 61.3011 65.4608 62.2016 65.3107 63.1021C65.7609 62.9521 65.7609 62.6519 66.3613 62.6519L79.1186 60.7008C79.5689 60.7008 79.5689 60.7008 79.8691 60.7008L80.1692 59.2Z" fill="#8EC547"/>
<path d="M90.6753 81.5615L82.8708 60.85C82.4206 59.4993 81.52 59.049 80.1693 59.1991L79.719 60.85C80.6195 61.0001 81.52 61.6004 81.8202 62.5009L89.6247 83.2124C89.7748 83.6626 89.7748 84.263 89.7748 84.5631C90.6753 84.1129 91.1256 82.7621 90.6753 81.5615Z" fill="#77A340"/>
<path d="M165.418 98.0707C165.418 98.0707 183.729 86.2141 196.936 88.9156C210.294 91.6171 216.748 92.9678 220.8 98.0707C224.702 103.173 227.404 108.126 227.404 108.126C227.404 108.126 229.505 109.477 232.207 106.025C234.908 102.573 231.757 84.4131 222.751 75.4081C213.746 66.253 189.582 61.1502 176.225 74.2074C162.867 87.2647 159.265 95.5192 160.015 96.7199C160.616 97.7705 165.418 98.0707 165.418 98.0707Z" fill="#67863A"/>
</svg>
