<?xml version="1.0" encoding="UTF-8" standalone="no"?>
<svg width="351px" height="593px" viewBox="0 0 351 593" version="1.1" xmlns="http://www.w3.org/2000/svg" xmlns:xlink="http://www.w3.org/1999/xlink">
    <!-- Generator: Sketch 3.7.2 (28276) - http://www.bohemiancoding.com/sketch -->
    <title>phone</title>
    <desc>Created with Sketch.</desc>
    <defs>
        <filter x="-50%" y="-50%" width="200%" height="200%" filterUnits="objectBoundingBox" id="filter-1">
            <feOffset dx="0" dy="10" in="SourceAlpha" result="shadowOffsetOuter1"></feOffset>
            <feGaussianBlur stdDeviation="22.5" in="shadowOffsetOuter1" result="shadowBlurOuter1"></feGaussianBlur>
            <feColorMatrix values="0 0 0 0 0   0 0 0 0 0   0 0 0 0 0  0 0 0 0.15 0" type="matrix" in="shadowBlurOuter1" result="shadowMatrixOuter1"></feColorMatrix>
            <feMerge>
                <feMergeNode in="shadowMatrixOuter1"></feMergeNode>
                <feMergeNode in="SourceGraphic"></feMergeNode>
            </feMerge>
        </filter>
    </defs>
    <g id="Page-1" stroke="none" stroke-width="1" fill="none" fill-rule="evenodd">
        <g id="MapSwipe-v2" transform="translate(-545.000000, -49.000000)">
            <g id="phone-with-map" transform="translate(-273.000000, -303.000000)">
                <g id="phone-tiles" transform="translate(863.000000, 387.000000)">
                    <g id="phone" filter="url(#filter-1)">
                        <path d="M3.5,71 C5.43835481,71 7,72.5522534 7,74.4803424 L7,147.519658 C7,149.447747 5.43835481,151 3.5,151 C1.56095144,151 0,149.447747 0,147.519658 L0,74.4803424 C0,72.5522534 1.56095144,71 3.5,71 L3.5,71 Z" id="rect10820-2-0" fill="#F3F3F3"></path>
                        <path d="M40.0235749,-5.68434189e-14 L222.976425,-5.68434189e-14 C244.041486,-5.68434189e-14 261,16.9858111 261,38.0847782 L261,464.915222 C261,486.014189 244.041486,503 222.976425,503 L40.0235749,503 C18.9585144,503 2,486.014189 2,464.915222 L2,38.0847782 C2,16.9858111 18.9585144,-5.68434189e-14 40.0235749,-5.68434189e-14 Z M19.0172781,50.8678994 L243.983413,50.8678994 C245.040469,50.8678994 245.890814,51.7200983 245.890814,52.7786474 L245.890814,454.376194 C245.890814,455.434743 245.040469,456.286942 243.983413,456.286942 L19.0172781,456.286942 C17.9602227,456.286942 17.109186,455.434743 17.109186,454.376194 L17.109186,52.7786474 C17.109186,51.7200983 17.9602227,50.8678994 19.0172781,50.8678994 Z" id="Combined-Shape" stroke="#E4E4E4" stroke-width="0.807189542" fill="#FBFBFB"></path>
                        <path d="M169,16.5 C169,18.4330204 167.432867,20 165.500347,20 C163.567133,20 162,18.4330204 162,16.5 C162,14.5669796 163.567133,13 165.500347,13 C167.432867,13 169,14.5669796 169,16.5 L169,16.5 Z" id="path10798-8-2" fill="#E4E4E4"></path>
                        <path d="M178,16.5 C178,18.4330204 176.432867,20 174.500347,20 C172.567133,20 171,18.4330204 171,16.5 C171,14.5669796 172.567133,13 174.500347,13 C176.432867,13 178,14.5669796 178,16.5 L178,16.5 Z" id="path10802-8-0" fill="#E4E4E4"></path>
                        <path d="M227,20 C227,22.2091662 225.208991,24 223.000397,24 C220.791009,24 219,22.2091662 219,20 C219,17.7908338 220.791009,16 223.000397,16 C225.208991,16 227,17.7908338 227,20 L227,20 Z" id="path10806-8-5" fill="#E4E4E4"></path>
                        <path d="M113.756108,10 L151.243892,10 C152.77129,10 154,11.3380264 154,13 C154,14.6619736 152.77129,16 151.243892,16 L113.756108,16 C112.229403,16 111,14.6619736 111,13 C111,11.3380264 112.229403,10 113.756108,10 L113.756108,10 Z" id="rect10812-3-6" fill="#E4E4E4"></path>
                        <path d="M108.678742,468 L151.321258,468 C155.574871,468 159,471.386985 159,475.594192 L159,478.40574 C159,482.612947 155.574871,486 151.321258,486 L108.678742,486 C104.424443,486 101,482.612947 101,478.40574 L101,475.594192 C101,471.386985 104.424443,468 108.678742,468 L108.678742,468 Z" id="rect10816-0-9" fill="#E4E4E4"></path>
                        <path d="M109.727791,469 L151.272209,469 C154.999319,469 158,472.010649 158,475.750437 L158,478.249563 C158,481.989281 154.999319,485 151.272209,485 L109.727791,485 C106.000681,485 103,481.989281 103,478.249563 L103,475.750437 C103,472.010649 106.000681,469 109.727791,469 L109.727791,469 Z" id="rect10818-8-2" fill="#FFFFFF"></path>
                    </g>
                </g>
            </g>
        </g>
    </g>
</svg>