<svg width="246" height="156" viewBox="0 0 246 156" fill="none" xmlns="http://www.w3.org/2000/svg">
<path d="M180.108 32.4565C180.108 22.7008 175.305 14.1459 167.951 8.7428C170.652 22.2506 174.555 54.219 155.494 61.7233C169.452 59.1719 180.108 47.0149 180.108 32.4565Z" fill="#66C8CB"/>
<path d="M50.5833 39.5106C50.5833 39.5106 45.0301 43.4129 50.133 52.1179C55.5362 60.973 62.5902 63.5245 60.6391 69.9782C58.5379 76.4319 75.9479 71.6292 80.0003 69.9782C84.0526 68.3272 102.513 68.1772 102.513 69.9782C102.513 71.7792 111.368 61.1231 110.468 46.7148C109.417 32.3065 104.915 18.3484 93.0578 19.9994C80.9008 21.6503 50.5833 39.5106 50.5833 39.5106Z" fill="#19403E"/>
<path d="M69.4941 101.646L117.372 113.803L245.546 89.3393C245.546 89.3393 236.991 155.527 116.321 155.527C72.4959 155.527 45.1801 146.672 28.2204 135.566C-1.1966 116.055 0.604442 89.1892 0.604442 89.1892L69.4941 101.646Z" fill="#94D3D2"/>
<path d="M109.117 32.4566C109.117 15.9471 95.7594 2.58936 79.2499 2.58936C69.9445 2.58936 61.8398 7.09196 56.2866 13.6958L81.201 25.2524L88.7053 32.4566C88.7053 32.4566 98.0107 45.9644 98.0107 55.2697C104.614 50.0167 109.117 41.7619 109.117 32.4566Z" fill="#94D3D2"/>
<path d="M88.5551 66.076C88.5551 66.076 112.719 57.5211 107.766 81.5349C102.813 105.699 85.2532 113.954 85.2532 113.954L77.1485 109.451C77.1485 109.451 88.7052 101.346 92.7575 93.9921C96.8099 86.6378 99.2112 76.8822 97.5603 75.2313C95.9093 73.5803 97.4102 93.6919 97.4102 93.6919L83.3021 106.299L64.5413 101.496L69.7943 70.1283C69.7943 70.1283 74.7471 64.7252 79.5499 65.6257C84.2026 66.5262 86.7541 67.1266 86.7541 67.1266L88.5551 66.076Z" fill="#28BEC3"/>
<path d="M144.537 113.203L151.291 121.008L209.675 115.454V112.903L144.537 111.552V113.203Z" fill="#19403E"/>
<path d="M144.537 111.552L151.291 118.606L209.675 112.903L196.617 105.099L144.537 111.552Z" fill="#1C5C57"/>
<path d="M94.5584 113.203L87.8046 121.008L29.4209 115.454V112.903L94.5584 111.552V113.203Z" fill="#19403E"/>
<path d="M94.5584 111.552L87.8046 118.606L29.4209 112.903L42.4784 105.099L94.5584 111.552Z" fill="#1C5C57"/>
<path d="M147.389 67.877C147.389 67.877 127.278 73.5803 127.127 89.7896C126.977 105.999 124.726 113.954 136.583 113.653C148.29 113.653 151.441 110.502 151.441 110.502L153.693 101.947C153.693 101.947 142.887 107.35 137.483 98.4946C132.08 89.6395 138.834 81.9851 138.834 81.9851V104.498L178.757 103.147L173.204 73.8804C173.204 73.8804 165.099 64.1248 156.244 65.9258C147.389 67.877 147.389 67.877 147.389 67.877Z" fill="#218D8F"/>
<path d="M120.523 32.4565C120.523 32.4565 113.319 38.7602 117.672 45.5141C122.174 52.268 124.126 47.0149 124.126 47.0149L120.523 32.4565Z" fill="#1B4F4C"/>
<path d="M214.627 52.7183C211.776 91.5907 186.411 102.697 173.204 105.849C182.209 106.299 205.772 107.8 210.275 102.997C215.228 97.5941 217.779 57.6711 217.779 57.6711C217.779 57.6711 217.779 53.4687 214.627 52.7183Z" fill="#1B4F4C"/>
<path d="M214.628 52.7182C214.177 52.5681 214.177 52.2679 213.577 52.2679C209.074 52.2679 167.05 52.2679 167.05 52.2679C167.05 52.2679 164.349 54.2191 165.099 62.1736C165.85 70.2783 164.949 102.547 164.949 102.547C164.949 102.547 164.499 105.849 170.802 105.849C171.253 105.849 172.303 105.849 173.054 105.849C186.562 102.847 213.127 92.191 214.628 52.7182Z" fill="#1C5C57"/>
<path d="M195.116 83.486C195.116 83.486 190.314 84.5366 192.415 89.0392C194.516 93.5418 195.116 105.549 193.465 110.502C191.814 115.755 190.464 119.507 190.464 119.507C190.464 119.507 192.715 123.259 196.617 119.507C200.519 115.755 202.921 108.851 202.921 99.0949C202.771 89.6395 199.469 85.8873 195.116 83.486Z" fill="#19403E"/>
<path d="M209.675 118.156C209.675 118.156 207.423 123.109 200.219 123.709C193.015 124.159 180.708 123.709 180.708 123.709C180.708 123.709 174.404 123.259 175.755 121.158C177.106 119.056 183.41 119.207 190.914 118.306C198.118 117.406 209.675 118.156 209.675 118.156Z" fill="#19403E"/>
<path d="M173.054 13.5458C173.054 13.5458 173.504 7.99259 179.808 11.7448C186.111 15.647 187.012 18.7988 186.412 22.4009C185.811 26.003 182.359 25.4026 186.562 30.5056C190.764 35.7586 189.263 35.3083 189.263 35.3083C189.263 35.3083 182.809 36.0588 181.158 30.8057C179.658 25.5527 175.455 26.7534 175.455 20.4498" fill="#19403E"/>
<path d="M155.343 61.8735C155.343 65.6257 157.595 69.0777 157.595 69.0777C157.595 69.0777 151.891 69.9782 149.49 70.4285C147.089 70.8787 145.438 62.0236 145.438 62.0236H155.343V61.8735Z" fill="#66C8CB"/>
<path d="M146.639 109.751C146.639 109.751 148.44 114.704 153.242 113.803C158.045 112.903 155.194 109.751 155.194 109.751C155.194 109.751 157.445 113.053 161.497 111.852C165.55 110.501 169.902 104.648 161.497 103.297C153.092 101.947 153.993 101.196 151.141 102.847C148.74 103.898 146.639 109.751 146.639 109.751Z" fill="#94D3D2"/>
<path d="M82.2517 61.8735C82.2517 61.8735 82.702 70.7286 86.9044 70.2783C91.1068 69.8281 86.9044 59.6222 86.9044 59.6222" fill="#C7E7E0"/>
<path d="M80.0003 106.449C74.4471 106.449 72.3458 111.852 72.3458 111.852C72.3458 111.852 71.4453 117.255 73.9968 113.803C76.5483 110.652 78.1992 111.852 78.1992 111.852C78.1992 111.852 73.6966 114.104 77.2987 114.854C80.7507 115.604 82.2515 113.353 82.1015 111.852C81.9514 110.351 81.6512 115.754 84.2027 115.004C86.604 114.254 88.4051 110.501 86.7542 109.301C85.4034 107.95 87.2044 106.449 80.0003 106.449Z" fill="#C7E7E0"/>
<path d="M47.7315 103.748C42.1783 103.748 40.077 109.151 40.077 109.151C40.077 109.151 39.1765 114.554 41.728 111.102C44.2795 107.95 45.9304 109.151 45.9304 109.151C45.9304 109.151 41.4278 111.402 45.0299 112.153C48.4819 112.903 49.9828 110.652 49.8327 109.151C49.6826 107.65 49.3824 113.053 51.9339 112.303C54.3353 111.552 56.1363 107.8 54.4853 106.599C52.8344 105.249 54.7855 103.748 47.7315 103.748Z" fill="#C7E7E0"/>
<path d="M11.8607 117.405C11.8607 117.405 14.112 122.358 21.3162 122.959C28.5203 123.409 40.8274 122.959 40.8274 122.959C40.8274 122.959 47.1311 122.508 45.7803 120.407C44.4295 118.306 38.1259 118.456 30.6215 117.556C23.2673 116.505 11.8607 117.405 11.8607 117.405Z" fill="#19403E"/>
<path d="M126.677 135.416C137.701 135.416 146.638 131.653 146.638 127.011C146.638 122.369 137.701 118.606 126.677 118.606C115.653 118.606 106.715 122.369 106.715 127.011C106.715 131.653 115.653 135.416 126.677 135.416Z" fill="white"/>
<path d="M97.5603 74.931C97.5603 74.931 91.4067 77.1823 92.6074 84.6867C93.658 91.8908 88.8552 99.2451 87.2043 100.596C85.7034 101.947 87.2043 100.596 87.2043 100.596L96.9599 89.7896L97.5603 74.931Z" fill="#218D8F"/>
<path d="M95.7595 26.7533C95.7595 26.7533 98.6112 29.9051 97.7106 32.4566C96.66 35.0081 92.7578 40.5612 92.7578 40.5612C92.7578 40.5612 96.9602 38.0098 98.0108 35.0081C98.9114 32.1564 99.5117 30.0552 98.9113 28.7044C98.1609 27.8039 95.7595 26.7533 95.7595 26.7533Z" fill="#218D8F"/>
<path d="M126.677 18.7987L121.124 23.7516C121.124 23.7516 125.626 28.5543 122.925 30.5055C120.373 32.4566 118.873 33.207 118.873 37.5595C118.873 41.912 122.625 48.9661 122.625 48.9661C122.625 48.9661 128.178 56.0202 131.48 47.015C134.932 38.1599 126.677 18.7987 126.677 18.7987Z" fill="#19403E"/>
<path d="M168.401 9.6434C163.448 6.04133 157.294 3.79004 150.691 3.79004C143.186 3.79004 136.432 6.4916 131.179 10.9942C127.727 15.797 123.975 22.4008 125.476 27.8039C127.727 38.0098 123.375 39.9609 127.277 47.9155C128.628 50.617 129.378 52.8683 130.129 54.9695C135.532 60.2226 142.586 63.3744 150.691 63.3744C152.492 63.3744 154.143 63.2243 156.094 62.9241C175.005 55.1196 171.252 23.3013 168.401 9.6434Z" fill="#94D3D2"/>
<path d="M121.124 23.7516C132.53 18.4985 137.783 15.3467 139.434 13.3956C141.235 11.5945 137.333 16.6975 137.333 16.6975C137.333 16.6975 146.639 16.6975 153.242 13.0954C159.846 9.49333 165.7 10.5439 164.799 16.0971C163.748 21.6503 168.401 21.6503 171.403 20.5997C174.254 19.5491 175.905 34.5578 173.654 37.4094C171.553 40.2611 169.602 44.0132 172.904 45.5141C176.356 46.8649 182.359 40.5612 180.108 28.4042C177.857 16.2472 170.652 1.98901 155.494 1.98901C140.335 1.98901 132.981 6.04135 126.527 11.4445C119.923 16.8476 121.124 23.7516 121.124 23.7516Z" fill="#19403E"/>
<path d="M138.534 5.14075C138.534 5.14075 129.679 9.19309 125.476 14.5962C121.274 20.1494 133.881 10.5439 133.881 10.5439L138.534 5.14075Z" fill="#1E6969"/>
<path d="M148.74 6.19141C148.74 6.19141 146.788 14.2961 141.535 15.0465C136.282 15.7969 142.886 16.8475 147.089 12.495C151.441 7.99244 148.74 6.19141 148.74 6.19141Z" fill="#1E6969"/>
<path d="M134.482 125.21C134.482 125.21 133.281 122.659 131.78 121.158C131.33 120.708 131.33 120.407 131.03 120.107C129.829 120.557 129.078 121.158 129.078 121.158L111.068 127.011L133.881 130.163C133.881 130.163 134.332 130.613 134.932 130.613C133.581 128.212 134.482 125.21 134.482 125.21Z" fill="#28BEC3"/>
<path d="M138.984 130.163C138.534 126.111 137.333 120.407 134.481 119.807C133.131 119.357 131.93 119.807 130.879 120.257C130.879 120.708 131.33 120.708 131.63 121.308C133.281 122.659 134.331 125.36 134.331 125.36C134.331 125.36 133.581 128.362 134.782 130.913C136.433 131.814 139.434 133.015 138.984 130.163Z" fill="#94D3D2"/>
<path d="M128.478 124.159C129.721 124.159 130.729 123.756 130.729 123.259C130.729 122.762 129.721 122.358 128.478 122.358C127.235 122.358 126.227 122.762 126.227 123.259C126.227 123.756 127.235 124.159 128.478 124.159Z" fill="#218D8F"/>
<path d="M124.276 127.912C125.519 127.912 126.527 127.508 126.527 127.011C126.527 126.514 125.519 126.11 124.276 126.11C123.032 126.11 122.024 126.514 122.024 127.011C122.024 127.508 123.032 127.912 124.276 127.912Z" fill="#218D8F"/>
<path d="M88.7052 32.4567L81.2008 25.2525L65.7419 18.0483C63.0404 22.2508 54.6355 33.5073 60.1887 40.5613C63.7908 45.0639 60.639 54.6695 61.2393 58.2715C65.7419 61.1232 73.3964 62.1738 79.2497 62.1738C86.4539 62.1738 92.7575 59.6223 97.8604 55.4199C98.0105 46.1145 88.7052 32.4567 88.7052 32.4567Z" fill="#C7E7E0"/>
<path d="M52.8345 39.5107C60.0386 38.1599 59.2882 41.1616 64.241 40.5613C82.5516 38.6102 75.3474 30.8057 74.597 30.8057L52.8345 39.5107Z" fill="#94D3D2"/>
<path d="M73.2466 42.2122C80.4507 40.8614 76.2483 42.3622 81.2011 40.8614C87.3547 38.9103 87.6549 30.9557 86.7544 30.9557L73.2466 42.2122Z" fill="#94D3D2"/>
<path d="M105.665 44.0132C107.316 40.5613 105.215 36.0587 103.113 31.7062C101.012 27.2036 103.564 24.6521 105.665 18.1984C107.166 13.3956 102.663 7.39214 99.8115 4.24032C98.911 4.09023 98.0105 3.79005 96.9599 4.09023C84.5027 4.54048 92.7575 -1.46298 77.1485 0.338063C61.5395 2.1391 57.187 9.19317 52.084 16.0971C46.831 23.1512 51.3336 27.5037 47.8816 29.6049C44.4296 32.0063 49.6826 40.111 45.18 40.8614C40.6774 41.6118 45.9305 44.1633 50.1329 40.8614C50.1329 40.8614 60.9391 42.3623 67.2427 35.6084C73.5464 29.0046 73.8466 40.8614 71.8954 42.6624C70.0944 44.4635 79.3998 41.912 83.0018 36.0587C86.6039 30.2053 92.4573 39.3606 91.1065 43.2628C89.6056 47.1651 100.562 37.8597 99.9616 33.8074C99.5113 29.6049 101.012 32.6067 99.9616 44.3134C99.5113 51.5176 100.412 56.9207 102.663 58.8718C101.012 55.5699 104.164 47.1651 105.665 44.0132Z" fill="#1E6969"/>
<path d="M109.117 29.7551C111.518 23.4514 115.721 22.701 111.818 18.3485C108.216 14.2962 108.366 4.99079 98.911 3.64001C101.613 6.79183 106.115 12.9454 104.764 17.5981C102.663 24.352 100.112 26.9034 102.213 31.1058C104.314 35.6084 106.265 39.9609 104.764 43.4129C103.113 46.8649 100.112 55.1197 102.063 57.9713C103.414 59.172 105.065 58.8718 106.866 56.6206C111.518 51.0674 107.016 39.6608 112.569 39.961C118.122 40.8615 106.565 36.0587 109.117 29.7551Z" fill="#1B4F4C"/>
<path d="M76.0978 1.83887C76.0978 1.83887 60.789 4.39033 56.4365 15.6468C52.084 26.9033 55.686 13.0954 63.9408 9.34319C71.8954 5.14077 76.0978 1.83887 76.0978 1.83887Z" fill="#218D8F"/>
<path d="M68.4434 23.7516C68.4434 23.7516 66.3422 33.0569 58.0875 35.3082C49.6826 37.5595 49.6826 37.5595 49.6826 37.5595C49.6826 37.5595 61.0892 37.7096 64.5412 33.9575C68.1433 30.2053 68.4434 23.7516 68.4434 23.7516Z" fill="#218D8F"/>
<path d="M53.7349 33.3571C53.7349 33.3571 57.7872 33.3571 60.4888 30.8056C63.1903 28.4042 64.6912 25.2524 64.6912 23.6015C64.6912 21.9505 63.7907 25.8528 61.3893 29.0046C58.6877 32.1564 53.7349 33.3571 53.7349 33.3571Z" fill="#218D8F"/>
<path d="M7.50854 103.748C12.4614 109.151 40.2274 106.449 46.9813 106.449C53.7352 106.449 52.8347 103.147 52.8347 103.147C52.8347 103.147 51.9341 70.8786 52.6846 62.7739C53.435 54.6692 50.7334 52.8682 50.7334 52.8682C44.5799 83.786 7.50854 103.748 7.50854 103.748Z" fill="#1B4F4C"/>
<path d="M0.00392095 58.7215C0.00392095 58.7215 2.4053 98.6445 7.50825 104.048C7.50825 104.048 44.8798 84.8365 50.8832 53.4684C50.8832 53.4684 8.70893 53.4684 4.35642 53.4684C-0.296261 53.0182 0.00392095 58.7215 0.00392095 58.7215Z" fill="#1C5C57"/>
<path d="M26.4193 82.8856C26.4193 82.8856 31.222 83.9362 29.1208 88.4388C27.0196 92.9414 26.4192 104.948 28.0702 109.901C29.7212 115.154 31.0719 118.906 31.0719 118.906C31.0719 118.906 28.8206 122.659 24.9184 118.906C21.0161 115.154 18.6147 108.25 18.6147 98.4946C18.7648 88.739 21.9167 84.9868 26.4193 82.8856Z" fill="#19403E"/>
</svg>
